<mxfile host="app.diagrams.net" agent="Mozilla/5.0 (Windows NT 10.0; Win64; x64) AppleWebKit/537.36 (KHTML, like Gecko) Chrome/130.0.0.0 Safari/537.36" version="24.8.3">
  <diagram name="PÃ¡gina-1" id="RRQcCFWgyD6TMdmRlXpb">
    <mxGraphModel dx="1185" dy="647" grid="1" gridSize="10" guides="1" tooltips="1" connect="1" arrows="1" fold="1" page="1" pageScale="1" pageWidth="827" pageHeight="1169" math="0" shadow="0">
      <root>
        <mxCell id="0" />
        <mxCell id="1" parent="0" />
        <mxCell id="Gb7fhnU5ldpY52YVY7vI-80" value="" style="rounded=1;whiteSpace=wrap;html=1;sketch=1;curveFitting=1;jiggle=2;fillColor=#DBDBDB;fontColor=#333333;strokeColor=#666666;" vertex="1" parent="1">
          <mxGeometry x="460" y="540" width="300" height="300" as="geometry" />
        </mxCell>
        <mxCell id="Gb7fhnU5ldpY52YVY7vI-74" value="" style="rounded=1;whiteSpace=wrap;html=1;sketch=1;curveFitting=1;jiggle=2;fillColor=#DBDBDB;fontColor=#333333;strokeColor=#666666;" vertex="1" parent="1">
          <mxGeometry x="300" y="520" width="150" height="150" as="geometry" />
        </mxCell>
        <mxCell id="Gb7fhnU5ldpY52YVY7vI-73" value="" style="rounded=1;whiteSpace=wrap;html=1;sketch=1;curveFitting=1;jiggle=2;fillColor=#DBDBDB;fontColor=#333333;strokeColor=#666666;" vertex="1" parent="1">
          <mxGeometry x="30" y="160" width="260" height="500" as="geometry" />
        </mxCell>
        <mxCell id="Gb7fhnU5ldpY52YVY7vI-21" style="edgeStyle=orthogonalEdgeStyle;curved=1;rounded=0;orthogonalLoop=1;jettySize=auto;html=1;entryX=0.5;entryY=0;entryDx=0;entryDy=0;" edge="1" parent="1" source="Gb7fhnU5ldpY52YVY7vI-1" target="Gb7fhnU5ldpY52YVY7vI-4">
          <mxGeometry relative="1" as="geometry" />
        </mxCell>
        <mxCell id="Gb7fhnU5ldpY52YVY7vI-22" style="edgeStyle=orthogonalEdgeStyle;curved=1;rounded=0;orthogonalLoop=1;jettySize=auto;html=1;entryX=0.5;entryY=0;entryDx=0;entryDy=0;" edge="1" parent="1" source="Gb7fhnU5ldpY52YVY7vI-1" target="Gb7fhnU5ldpY52YVY7vI-8">
          <mxGeometry relative="1" as="geometry" />
        </mxCell>
        <mxCell id="Gb7fhnU5ldpY52YVY7vI-1" value="Vitorio&lt;br&gt;Zerbinato" style="rounded=1;whiteSpace=wrap;html=1;" vertex="1" parent="1">
          <mxGeometry x="340" y="40" width="120" height="60" as="geometry" />
        </mxCell>
        <mxCell id="Gb7fhnU5ldpY52YVY7vI-23" style="edgeStyle=orthogonalEdgeStyle;curved=1;rounded=0;orthogonalLoop=1;jettySize=auto;html=1;entryX=0.5;entryY=0;entryDx=0;entryDy=0;" edge="1" parent="1" source="Gb7fhnU5ldpY52YVY7vI-4" target="Gb7fhnU5ldpY52YVY7vI-16">
          <mxGeometry relative="1" as="geometry" />
        </mxCell>
        <mxCell id="Gb7fhnU5ldpY52YVY7vI-24" style="edgeStyle=orthogonalEdgeStyle;curved=1;rounded=0;orthogonalLoop=1;jettySize=auto;html=1;entryX=0.5;entryY=0;entryDx=0;entryDy=0;" edge="1" parent="1" source="Gb7fhnU5ldpY52YVY7vI-4" target="Gb7fhnU5ldpY52YVY7vI-15">
          <mxGeometry relative="1" as="geometry" />
        </mxCell>
        <mxCell id="Gb7fhnU5ldpY52YVY7vI-4" value="Yolanda Zerbinato" style="whiteSpace=wrap;html=1;rounded=1;strokeColor=default;align=center;verticalAlign=middle;fontFamily=Helvetica;fontSize=12;fontColor=default;fillColor=default;" vertex="1" parent="1">
          <mxGeometry x="600" y="200" width="120" height="60" as="geometry" />
        </mxCell>
        <mxCell id="Gb7fhnU5ldpY52YVY7vI-20" value="" style="edgeStyle=orthogonalEdgeStyle;curved=1;rounded=0;orthogonalLoop=1;jettySize=auto;html=1;" edge="1" parent="1" source="Gb7fhnU5ldpY52YVY7vI-8" target="Gb7fhnU5ldpY52YVY7vI-19">
          <mxGeometry relative="1" as="geometry" />
        </mxCell>
        <mxCell id="Gb7fhnU5ldpY52YVY7vI-8" value="Elza Zerbinato" style="whiteSpace=wrap;html=1;rounded=1;" vertex="1" parent="1">
          <mxGeometry x="80" y="200" width="120" height="60" as="geometry" />
        </mxCell>
        <mxCell id="Gb7fhnU5ldpY52YVY7vI-33" style="edgeStyle=orthogonalEdgeStyle;curved=1;rounded=0;orthogonalLoop=1;jettySize=auto;html=1;entryX=0.5;entryY=0;entryDx=0;entryDy=0;exitX=0;exitY=0.5;exitDx=0;exitDy=0;" edge="1" parent="1" source="Gb7fhnU5ldpY52YVY7vI-15" target="Gb7fhnU5ldpY52YVY7vI-29">
          <mxGeometry relative="1" as="geometry" />
        </mxCell>
        <mxCell id="Gb7fhnU5ldpY52YVY7vI-61" style="edgeStyle=orthogonalEdgeStyle;curved=1;rounded=0;orthogonalLoop=1;jettySize=auto;html=1;entryX=0.5;entryY=0;entryDx=0;entryDy=0;exitX=1;exitY=0.5;exitDx=0;exitDy=0;" edge="1" parent="1" source="Gb7fhnU5ldpY52YVY7vI-15" target="Gb7fhnU5ldpY52YVY7vI-28">
          <mxGeometry relative="1" as="geometry" />
        </mxCell>
        <mxCell id="Gb7fhnU5ldpY52YVY7vI-15" value="Irani Polverino" style="whiteSpace=wrap;html=1;rounded=1;strokeColor=#6c8ebf;align=center;verticalAlign=middle;fontFamily=Helvetica;fontSize=12;fillColor=#dae8fc;fontColor=default;" vertex="1" parent="1">
          <mxGeometry x="865" y="395" width="120" height="60" as="geometry" />
        </mxCell>
        <mxCell id="Gb7fhnU5ldpY52YVY7vI-35" style="edgeStyle=orthogonalEdgeStyle;curved=1;rounded=0;orthogonalLoop=1;jettySize=auto;html=1;entryX=0.5;entryY=0;entryDx=0;entryDy=0;" edge="1" parent="1" source="Gb7fhnU5ldpY52YVY7vI-16" target="Gb7fhnU5ldpY52YVY7vI-31">
          <mxGeometry relative="1" as="geometry" />
        </mxCell>
        <mxCell id="Gb7fhnU5ldpY52YVY7vI-36" style="edgeStyle=orthogonalEdgeStyle;curved=1;rounded=0;orthogonalLoop=1;jettySize=auto;html=1;entryX=0.5;entryY=0;entryDx=0;entryDy=0;exitX=0;exitY=0.5;exitDx=0;exitDy=0;" edge="1" parent="1" source="Gb7fhnU5ldpY52YVY7vI-16" target="Gb7fhnU5ldpY52YVY7vI-32">
          <mxGeometry relative="1" as="geometry" />
        </mxCell>
        <mxCell id="Gb7fhnU5ldpY52YVY7vI-16" value="Luis Polverino" style="whiteSpace=wrap;html=1;rounded=1;strokeColor=default;align=center;verticalAlign=middle;fontFamily=Helvetica;fontSize=12;fontColor=default;fillColor=default;" vertex="1" parent="1">
          <mxGeometry x="395" y="395" width="120" height="60" as="geometry" />
        </mxCell>
        <mxCell id="Gb7fhnU5ldpY52YVY7vI-38" value="" style="edgeStyle=orthogonalEdgeStyle;curved=1;rounded=0;orthogonalLoop=1;jettySize=auto;html=1;" edge="1" parent="1" source="Gb7fhnU5ldpY52YVY7vI-19" target="Gb7fhnU5ldpY52YVY7vI-37">
          <mxGeometry relative="1" as="geometry" />
        </mxCell>
        <mxCell id="Gb7fhnU5ldpY52YVY7vI-19" value="Gustavo Zotti" style="whiteSpace=wrap;html=1;rounded=1;fillColor=#dae8fc;strokeColor=#6c8ebf;" vertex="1" parent="1">
          <mxGeometry x="80" y="395" width="120" height="60" as="geometry" />
        </mxCell>
        <mxCell id="Gb7fhnU5ldpY52YVY7vI-28" value="Tamyris Pereira" style="whiteSpace=wrap;html=1;rounded=1;strokeColor=#6c8ebf;align=center;verticalAlign=middle;fontFamily=Helvetica;fontSize=12;fillColor=#dae8fc;" vertex="1" parent="1">
          <mxGeometry x="945" y="555" width="120" height="60" as="geometry" />
        </mxCell>
        <mxCell id="Gb7fhnU5ldpY52YVY7vI-29" value="Leonardo Pereira" style="whiteSpace=wrap;html=1;rounded=1;strokeColor=#6c8ebf;align=center;verticalAlign=middle;fontFamily=Helvetica;fontSize=12;fillColor=#dae8fc;" vertex="1" parent="1">
          <mxGeometry x="785" y="555" width="120" height="60" as="geometry" />
        </mxCell>
        <mxCell id="Gb7fhnU5ldpY52YVY7vI-44" style="edgeStyle=orthogonalEdgeStyle;curved=1;rounded=0;orthogonalLoop=1;jettySize=auto;html=1;entryX=0.5;entryY=0;entryDx=0;entryDy=0;exitX=1;exitY=0.5;exitDx=0;exitDy=0;" edge="1" parent="1" source="Gb7fhnU5ldpY52YVY7vI-31" target="Gb7fhnU5ldpY52YVY7vI-42">
          <mxGeometry relative="1" as="geometry" />
        </mxCell>
        <mxCell id="Gb7fhnU5ldpY52YVY7vI-45" style="edgeStyle=orthogonalEdgeStyle;curved=1;rounded=0;orthogonalLoop=1;jettySize=auto;html=1;entryX=0.5;entryY=0;entryDx=0;entryDy=0;exitX=0;exitY=0.5;exitDx=0;exitDy=0;" edge="1" parent="1" source="Gb7fhnU5ldpY52YVY7vI-31" target="Gb7fhnU5ldpY52YVY7vI-43">
          <mxGeometry relative="1" as="geometry" />
        </mxCell>
        <mxCell id="Gb7fhnU5ldpY52YVY7vI-31" value="Luciana Polverino" style="whiteSpace=wrap;html=1;rounded=1;strokeColor=#6c8ebf;align=center;verticalAlign=middle;fontFamily=Helvetica;fontSize=12;fillColor=#dae8fc;" vertex="1" parent="1">
          <mxGeometry x="545" y="555" width="120" height="60" as="geometry" />
        </mxCell>
        <mxCell id="Gb7fhnU5ldpY52YVY7vI-32" value="Juliana Polverino" style="whiteSpace=wrap;html=1;rounded=1;strokeColor=#6c8ebf;align=center;verticalAlign=middle;fontFamily=Helvetica;fontSize=12;fillColor=#dae8fc;" vertex="1" parent="1">
          <mxGeometry x="315" y="555" width="120" height="60" as="geometry" />
        </mxCell>
        <mxCell id="Gb7fhnU5ldpY52YVY7vI-37" value="Enzo" style="whiteSpace=wrap;html=1;rounded=1;fillColor=#dae8fc;strokeColor=#6c8ebf;" vertex="1" parent="1">
          <mxGeometry x="80" y="555" width="120" height="60" as="geometry" />
        </mxCell>
        <mxCell id="Gb7fhnU5ldpY52YVY7vI-42" value="Manu" style="whiteSpace=wrap;html=1;rounded=1;strokeColor=#6c8ebf;align=center;verticalAlign=middle;fontFamily=Helvetica;fontSize=12;fillColor=#dae8fc;" vertex="1" parent="1">
          <mxGeometry x="625" y="715" width="120" height="60" as="geometry" />
        </mxCell>
        <mxCell id="Gb7fhnU5ldpY52YVY7vI-43" value="Ricardo" style="whiteSpace=wrap;html=1;rounded=1;strokeColor=#6c8ebf;align=center;verticalAlign=middle;fontFamily=Helvetica;fontSize=12;fillColor=#dae8fc;" vertex="1" parent="1">
          <mxGeometry x="465" y="715" width="120" height="60" as="geometry" />
        </mxCell>
        <mxCell id="Gb7fhnU5ldpY52YVY7vI-46" value="Nascimento" style="rounded=1;whiteSpace=wrap;html=1;fillColor=#97D077;" vertex="1" parent="1">
          <mxGeometry x="365" y="110" width="70" height="20" as="geometry" />
        </mxCell>
        <mxCell id="Gb7fhnU5ldpY52YVY7vI-48" value="Casamento" style="rounded=1;whiteSpace=wrap;html=1;fillColor=#97D077;" vertex="1" parent="1">
          <mxGeometry x="365" y="140" width="70" height="20" as="geometry" />
        </mxCell>
        <mxCell id="Gb7fhnU5ldpY52YVY7vI-49" value="Ãbito" style="rounded=1;whiteSpace=wrap;html=1;fillColor=#97D077;" vertex="1" parent="1">
          <mxGeometry x="365" y="170" width="70" height="20" as="geometry" />
        </mxCell>
        <mxCell id="Gb7fhnU5ldpY52YVY7vI-50" value="Nascimento" style="rounded=1;whiteSpace=wrap;html=1;fillColor=#97D077;" vertex="1" parent="1">
          <mxGeometry x="625" y="270" width="70" height="20" as="geometry" />
        </mxCell>
        <mxCell id="Gb7fhnU5ldpY52YVY7vI-51" value="Casamento" style="rounded=1;whiteSpace=wrap;html=1;fillColor=#97D077;" vertex="1" parent="1">
          <mxGeometry x="625" y="300" width="70" height="20" as="geometry" />
        </mxCell>
        <mxCell id="Gb7fhnU5ldpY52YVY7vI-52" value="Ãbito" style="rounded=1;whiteSpace=wrap;html=1;fillColor=#97D077;" vertex="1" parent="1">
          <mxGeometry x="625" y="330" width="70" height="20" as="geometry" />
        </mxCell>
        <mxCell id="Gb7fhnU5ldpY52YVY7vI-53" value="Nascimento" style="rounded=1;whiteSpace=wrap;html=1;fillColor=#97D077;" vertex="1" parent="1">
          <mxGeometry x="810" y="620" width="70" height="20" as="geometry" />
        </mxCell>
        <mxCell id="Gb7fhnU5ldpY52YVY7vI-54" value="Nascimento" style="rounded=1;whiteSpace=wrap;html=1;fillColor=#97D077;" vertex="1" parent="1">
          <mxGeometry x="970" y="620" width="70" height="20" as="geometry" />
        </mxCell>
        <mxCell id="Gb7fhnU5ldpY52YVY7vI-55" value="Nascimento" style="rounded=1;whiteSpace=wrap;html=1;" vertex="1" parent="1">
          <mxGeometry x="650" y="785" width="70" height="20" as="geometry" />
        </mxCell>
        <mxCell id="Gb7fhnU5ldpY52YVY7vI-56" value="Nascimento" style="rounded=1;whiteSpace=wrap;html=1;" vertex="1" parent="1">
          <mxGeometry x="490" y="785" width="70" height="20" as="geometry" />
        </mxCell>
        <mxCell id="Gb7fhnU5ldpY52YVY7vI-57" value="Nascimento" style="rounded=1;whiteSpace=wrap;html=1;" vertex="1" parent="1">
          <mxGeometry x="340" y="620" width="70" height="20" as="geometry" />
        </mxCell>
        <mxCell id="Gb7fhnU5ldpY52YVY7vI-58" value="Nascimento" style="rounded=1;whiteSpace=wrap;html=1;" vertex="1" parent="1">
          <mxGeometry x="105" y="620" width="70" height="20" as="geometry" />
        </mxCell>
        <mxCell id="Gb7fhnU5ldpY52YVY7vI-62" value="Nascimento" style="rounded=1;whiteSpace=wrap;html=1;fillColor=#97D077;" vertex="1" parent="1">
          <mxGeometry x="890" y="465" width="70" height="20" as="geometry" />
        </mxCell>
        <mxCell id="Gb7fhnU5ldpY52YVY7vI-63" value="Casamento" style="rounded=1;whiteSpace=wrap;html=1;fillColor=#97D077;" vertex="1" parent="1">
          <mxGeometry x="890" y="495" width="70" height="20" as="geometry" />
        </mxCell>
        <mxCell id="Gb7fhnU5ldpY52YVY7vI-64" value="Nascimento" style="rounded=1;whiteSpace=wrap;html=1;" vertex="1" parent="1">
          <mxGeometry x="420" y="465" width="70" height="20" as="geometry" />
        </mxCell>
        <mxCell id="Gb7fhnU5ldpY52YVY7vI-65" value="Casamento" style="rounded=1;whiteSpace=wrap;html=1;" vertex="1" parent="1">
          <mxGeometry x="420" y="495" width="70" height="20" as="geometry" />
        </mxCell>
        <mxCell id="Gb7fhnU5ldpY52YVY7vI-66" value="Nascimento" style="rounded=1;whiteSpace=wrap;html=1;" vertex="1" parent="1">
          <mxGeometry x="570" y="620" width="70" height="20" as="geometry" />
        </mxCell>
        <mxCell id="Gb7fhnU5ldpY52YVY7vI-67" value="Casamento" style="rounded=1;whiteSpace=wrap;html=1;" vertex="1" parent="1">
          <mxGeometry x="570" y="650" width="70" height="20" as="geometry" />
        </mxCell>
        <mxCell id="Gb7fhnU5ldpY52YVY7vI-68" value="Nascimento" style="rounded=1;whiteSpace=wrap;html=1;" vertex="1" parent="1">
          <mxGeometry x="210" y="205" width="70" height="20" as="geometry" />
        </mxCell>
        <mxCell id="Gb7fhnU5ldpY52YVY7vI-69" value="Casamento" style="rounded=1;whiteSpace=wrap;html=1;" vertex="1" parent="1">
          <mxGeometry x="210" y="235" width="70" height="20" as="geometry" />
        </mxCell>
        <mxCell id="Gb7fhnU5ldpY52YVY7vI-70" value="Nascimento" style="rounded=1;whiteSpace=wrap;html=1;" vertex="1" parent="1">
          <mxGeometry x="210" y="400" width="70" height="20" as="geometry" />
        </mxCell>
        <mxCell id="Gb7fhnU5ldpY52YVY7vI-71" value="Casamento" style="rounded=1;whiteSpace=wrap;html=1;" vertex="1" parent="1">
          <mxGeometry x="210" y="430" width="70" height="20" as="geometry" />
        </mxCell>
        <mxCell id="Gb7fhnU5ldpY52YVY7vI-72" value="ItÃ¡lia" style="text;html=1;align=center;verticalAlign=middle;resizable=0;points=[];autosize=1;strokeColor=none;fillColor=none;" vertex="1" parent="1">
          <mxGeometry x="435" y="105" width="50" height="30" as="geometry" />
        </mxCell>
        <mxCell id="Gb7fhnU5ldpY52YVY7vI-75" value="" style="whiteSpace=wrap;html=1;rounded=1;strokeColor=#6c8ebf;align=center;verticalAlign=middle;fontFamily=Helvetica;fontSize=12;fillColor=#dae8fc;fontColor=default;" vertex="1" parent="1">
          <mxGeometry x="730" y="75" width="25" height="20" as="geometry" />
        </mxCell>
        <mxCell id="Gb7fhnU5ldpY52YVY7vI-76" value="REQUERENTE" style="text;html=1;align=center;verticalAlign=middle;resizable=0;points=[];autosize=1;strokeColor=none;fillColor=none;" vertex="1" parent="1">
          <mxGeometry x="755" y="70" width="110" height="30" as="geometry" />
        </mxCell>
        <mxCell id="Gb7fhnU5ldpY52YVY7vI-77" value="" style="whiteSpace=wrap;html=1;rounded=1;strokeColor=#6c8ebf;align=center;verticalAlign=middle;fontFamily=Helvetica;fontSize=12;fillColor=#97D077;fontColor=default;" vertex="1" parent="1">
          <mxGeometry x="730" y="105" width="25" height="20" as="geometry" />
        </mxCell>
        <mxCell id="Gb7fhnU5ldpY52YVY7vI-78" value="DOC OK" style="text;html=1;align=center;verticalAlign=middle;resizable=0;points=[];autosize=1;strokeColor=none;fillColor=none;" vertex="1" parent="1">
          <mxGeometry x="775" y="100" width="70" height="30" as="geometry" />
        </mxCell>
      </root>
    </mxGraphModel>
  </diagram>
</mxfile>
